<?xml version="1.0" encoding="utf-8"?>
<!-- Generator: Adobe Illustrator 24.1.0, SVG Export Plug-In . SVG Version: 6.00 Build 0)  -->
<svg version="1.1" id="Capa_1" xmlns="http://www.w3.org/2000/svg" xmlns:xlink="http://www.w3.org/1999/xlink" x="0px" y="0px"
	 viewBox="0 0 27 21.8" style="enable-background:new 0 0 27 21.8;" xml:space="preserve">
<style type="text/css">
	.st0{fill:#6C757D;}
	.st1{fill:none;stroke:#000000;stroke-width:0.5;stroke-miterlimit:10;}
	.st2{display:none;fill:none;stroke:#000000;stroke-width:0.5;stroke-miterlimit:10;}
</style>
<path class="st0" d="M5.1,6.8l1.6-0.5c0.4-0.1,0.9-0.1,1.3,0.1l1.5,0.8c0.4,0.2,0.9,0.2,1.4,0.1l1.3-0.5c0.7-0.2,1.4-0.1,1.8,0.4
	l0.6,0.7C15,8.5,16,8.6,16.7,8.2l0.6-0.5c0.5-0.4,1.2-0.4,1.8-0.1l1.2,0.6c0.5,0.2,1,0.2,1.5,0l0,0c1.1-0.5,2.5,0.4,2.1,1.4
	l-0.9,2.7c-0.1,0.3,0,0.7-0.3,0.8L22,13.4c-0.2,0.1-0.5,0.2-0.8,0.2L7,13.4c-0.3,0-0.9,0.1-1.1,0L5.4,13c-0.3-0.2-0.4-0.5-0.4-0.8
	L4,8.3C3.9,8,4,7.7,4.2,7.4l0.1-0.1C4.5,7.1,4.8,6.9,5.1,6.8z"/>
<path class="st1" d="M21.5,13.6h-15c-0.7,0-1.2-0.4-1.4-1.1l-1.7-8C3.2,3.8,3.9,3,4.8,3h19c0.9,0,1.6,0.8,1.3,1.7l-2.3,8
	C22.6,13.2,22.1,13.6,21.5,13.6z"/>
<path class="st1" d="M4.9,12"/>
<path class="st1" d="M3.9,6.8L3.7,6L3.2,4c-0.5-2-0.5-3.1-3-3.1"/>
<path class="st2" d="M3.5,1"/>
<circle class="st1" cx="8.7" cy="18.4" r="2.4"/>
<circle class="st1" cx="18.9" cy="18.4" r="2.4"/>
</svg>
