<?xml version="1.0" encoding="utf-8"?>
<!-- Generator: Adobe Illustrator 24.1.0, SVG Export Plug-In . SVG Version: 6.00 Build 0)  -->
<svg version="1.1" id="Capa_1" xmlns="http://www.w3.org/2000/svg" xmlns:xlink="http://www.w3.org/1999/xlink" x="0px" y="0px"
	 viewBox="0 0 27 27" style="enable-background:new 0 0 27 27;" xml:space="preserve">
<style type="text/css">
	.st0{fill:#FFFFFF;stroke:#000000;stroke-width:0.5;stroke-miterlimit:10;}
	.st1{fill:none;stroke:#000000;stroke-width:0.5;stroke-miterlimit:10;}
	.st2{display:none;stroke:#000000;stroke-width:0.5;stroke-miterlimit:10;}
	.st3{display:none;fill:none;stroke:#000000;stroke-width:0.5;stroke-miterlimit:10;}
</style>
<path class="st0" d="M21.5,17.2h-15c-0.7,0-1.2-0.4-1.4-1.1l-1.7-8C3.2,7.4,3.9,6.6,4.8,6.6h19c0.9,0,1.6,0.8,1.3,1.7l-2.3,8
	C22.6,16.8,22.1,17.2,21.5,17.2z"/>
<path class="st1" d="M4.9,15.6"/>
<path class="st1" d="M3.9,10.4L3.7,9.6l-0.5-2c-0.5-2-0.5-3.1-3-3.1"/>
<polygon class="st2" points="4.6,9.1 7.3,8.1 10.1,9.8 13.2,8.4 15.4,11.7 18.1,9.3 21,11.1 24.9,8.9 22.8,16.1 21.5,17 6.5,17 
	5.1,16 3.9,10.2 "/>
<path class="st3" d="M3.5,4.6"/>
<circle class="st1" cx="8.7" cy="21" r="2.4"/>
<circle class="st1" cx="18.9" cy="21" r="2.4"/>
</svg>
